
nColumns=19
nRows=24
DataType=double
version=3
OpenSimVersion=4.4-2022-10-11-798caa840
endheader
time	ground_force_calcn_r_vx	ground_force_calcn_r_vy	ground_force_calcn_r_vz	ground_force_calcn_r_px	ground_force_calcn_r_py	ground_force_calcn_r_pz	ground_force_calcn_r_mx	ground_force_calcn_r_my	ground_force_calcn_r_mz	ground_force_calcn_l_vx	ground_force_calcn_l_vy	ground_force_calcn_l_vz	ground_force_calcn_l_px	ground_force_calcn_l_py	ground_force_calcn_l_pz	ground_force_calcn_l_mx	ground_force_calcn_l_my	ground_force_calcn_l_mz
1.28	0	0	0	0	0	0	0	0	0	-149.152	195.502	8.29447	-0.114333	0	-0.835943	0.158004	-0.207104	-0.00878671
1.29	-14.8188	34.0976	4.03831	-0.127781	0	-0.287799	-0.117845	0.271157	0.0321142	-480.97	671.407	79.32259999999999	-0.122405	0	-0.838624	-0.337325	0.470886	0.0556323
1.3	-239.867	379.031	-19.627	-0.124537	0	-0.285947	-0.256283	0.404971	-0.0209703	-394.372	594.657	69.96169999999999	-0.117171	0	-0.837896	-1.01492	1.53036	0.180047
1.31	-417.793	574.091	-81.8194	-0.118582	0	-0.282824	0.0846954	-0.11638	0.0165865	-172.799	500.074	11.1509	-0.149666	0	-0.827134	-1.05767	3.06087	0.06825249999999999
1.32	-254.039	519.845	-75.8442	-0.137723	0	-0.283794	0.397516	-0.813445	0.11868	-90.5257	1142.73	57.9087	-0.244585	0	-0.813455	-0.240669	3.03804	0.153955
1.33	-110.365	981.163	-96.10339999999999	-0.215962	0	-0.29518	0.493332	-4.3858	0.429582	190.418	1947.45	147.606	-0.282686	0	-0.809918	0.278641	2.84973	0.215994
1.34	142.36	1692.24	-137.049	-0.255211	0	-0.302134	-0.627185	-7.45535	0.603786	96.8904	1546.52	179.155	-0.272133	0	-0.814582	0.0880672	1.40569	0.16284
1.35	113.809	1445.89	-162.798	-0.247656	0	-0.298537	-0.447395	-5.68395	0.639975	-260.65	871.308	149.579	-0.209636	0	-0.826273	0.0684495	-0.228815	-0.0392812
1.36	-206.302	851.884	-160.553	-0.192974	0	-0.286988	0.319652	-1.31994	0.248767	-358.197	627.929	118.97	-0.158498	0	-0.835208	-0.637808	1.11809	0.211838
1.37	-300.528	551.365	-116.368	-0.141112	0	-0.281911	0.41745	-0.765877	0.161642	-300.919	585.072	104.809	-0.156529	0	-0.836234	-1.01469	1.97284	0.353411
1.38	-277.889	457.919	-79.9666	-0.130635	0	-0.283511	1.39807	-2.30381	0.402316	-239.804	606.973	108.925	-0.166443	0	-0.835823	-0.875262	2.21539	0.397564
1.39	-255.88	440.722	-65.5351	-0.133284	0	-0.284655	2.21042	-3.80718	0.566126	-192.3	690.34	117.404	-0.180102	0	-0.834626	-0.787947	2.82866	0.481062
1.4	-235.223	467.299	-64.1163	-0.137077	0	-0.283787	2.84114	-5.64428	0.774429	-110.016	836.258	119.201	-0.199509	0	-0.83105	-0.510109	3.87747	0.552697
1.41	-213.987	546.752	-77.2683	-0.143327	0	-0.283195	2.83033	-7.23171	1.022	0.926434	994.5359999999999	125.413	-0.216257	0	-0.827635	0.00354555	3.80618	0.479966
1.42	-170.924	673.162	-100.282	-0.153303	0	-0.283759	2.06163	-8.119429999999999	1.20957	27.9858	1032.21	137.08	-0.216143	0	-0.828109	0.07166699999999999	2.64333	0.35104
1.43	-113.961	825.821	-127.167	-0.164142	0	-0.285063	1.10119	-7.97979	1.22879	-40.1524	933.829	131.69	-0.200086	0	-0.8310380000000001	-0.105707	2.45843	0.346693
1.44	-70.94199999999999	939.595	-143.474	-0.170758	0	-0.286414	0.56898	-7.53589	1.15072	-95.65649999999999	815.577	115.005	-0.181392	0	-0.8337059999999999	-0.386457	3.29497	0.464627
1.45	-71.2919	940.2809999999999	-138.026	-0.169247	0	-0.287014	0.576366	-7.60179	1.11588	-115.661	733.444	105.583	-0.167683	0	-0.8355089999999999	-0.533155	3.38091	0.486698
1.46	-104.189	847.51	-119.456	-0.160754	0	-0.286533	0.988483	-8.040649999999999	1.13332	-123.436	678.234	105.749	-0.156987	0	-0.837019	-0.393431	2.16175	0.337055
1.47	-130.995	739.711	-101.353	-0.150697	0	-0.285642	1.41564	-7.99392	1.09531	-123.753	645.6900000000001	105.907	-0.148805	0	-0.837853	-0.159419	0.831781	0.13643
1.48	-140.705	658.918	-95.3989	-0.142731	0	-0.284459	1.456	-6.81841	0.987178	-112.811	638.551	102.439	-0.145171	0	-0.837736	-0.0616605	0.349021	0.0559915
1.49	-136.282	619.764	-101.128	-0.138792	0	-0.283313	1.13469	-5.16022	0.8419990000000001	-95.0963	658.62	98.5723	-0.146531	0	-0.8366440000000001	-0.08572829999999999	0.593738	0.08886189999999999
1.5	-126.238	633.5359999999999	-113.6	-0.139673	0	-0.282576	0.8176020000000001	-4.10319	0.735747	-73.12179999999999	694.005	95.9046	-0.150668	0	-0.834986	-0.114695	1.08858	0.150431
1.51	-109.669	698.9349999999999	-126.435	-0.145461	0	-0.283022	0.670122	-4.27078	0.772572	-52.2452	729.476	96.4367	-0.154999	0	-0.833408	-0.105493	1.47295	0.194723
